<svg width="978" height="854" viewBox="0 0 978 854" fill="none" xmlns="http://www.w3.org/2000/svg">
<path d="M209.921 426.982C248.502 426.982 279.778 395.118 279.778 355.812C279.778 316.506 248.502 284.643 209.921 284.643C171.34 284.643 140.064 316.506 140.064 355.812C140.064 395.118 171.34 426.982 209.921 426.982Z" fill="#E53855"/>
<path d="M210.268 397.948C232.918 397.948 251.279 379.241 251.279 356.166C251.279 333.091 232.918 314.385 210.268 314.385C187.619 314.385 169.258 333.091 169.258 356.166C169.258 379.241 187.619 397.948 210.268 397.948Z" fill="#060039"/>
<path d="M210.268 378.119C222.169 378.119 231.816 368.291 231.816 356.166C231.816 344.042 222.169 334.214 210.268 334.214C198.368 334.214 188.72 344.042 188.72 356.166C188.72 368.291 198.368 378.119 210.268 378.119Z" fill="#44AB96"/>
<path d="M209.743 557.752C242.163 557.752 268.444 530.989 268.444 497.976C268.444 464.963 242.163 438.201 209.743 438.201C177.324 438.201 151.042 464.963 151.042 497.976C151.042 530.989 177.324 557.752 209.743 557.752Z" fill="#F0F1F1"/>
<path d="M279.429 426.982C279.429 466.094 248.383 497.801 210.086 497.801C210.086 458.689 241.132 426.982 279.429 426.982Z" fill="#E53855"/>
<path d="M209.056 495.738V497.801H207.037C169.856 497.801 139.714 467.018 139.714 429.045V426.982H141.734C178.915 426.982 209.056 457.765 209.056 495.738Z" fill="#44AB96"/>
<path d="M207.037 498.502H209.056V500.565C209.056 538.538 178.915 569.321 141.734 569.321H139.714V567.259C139.714 529.286 169.856 498.502 207.037 498.502Z" fill="#E53855"/>
<path d="M279.428 567.259V569.321H277.409C240.228 569.321 210.086 538.538 210.086 500.565V498.502H212.106C249.287 498.502 279.428 529.286 279.428 567.259Z" fill="#44AB96"/>
<path d="M11.4852 640.512C11.4852 673.541 37.7663 700.315 70.1858 700.315C102.605 700.315 128.886 673.541 128.886 640.512C128.886 607.483 102.605 580.708 70.1858 580.708C37.7663 580.708 11.4852 607.483 11.4852 640.512Z" fill="#F0F1F1"/>
<path d="M-2.28882e-05 638.418C-2.28882e-05 600.257 30.3651 569.321 67.8224 569.321H69.8571V571.394C69.8571 609.555 39.492 640.491 2.03465 640.491H-2.28882e-05V638.418Z" fill="#E53855"/>
<path d="M69.8571 709.588V711.661H67.8224C30.3651 711.661 -2.28882e-05 680.725 -2.28882e-05 642.564V640.491H2.03465C39.492 640.491 69.8571 671.427 69.8571 709.588Z" fill="#44AB96"/>
<path d="M69.8571 642.564V640.491H71.8918C109.349 640.491 139.714 671.427 139.714 709.588V711.661H137.68C100.222 711.661 69.8571 680.725 69.8571 642.564Z" fill="#E53855"/>
<path d="M139.714 571.394C139.714 609.555 109.349 640.491 71.8918 640.491H69.8571V638.418C69.8571 600.257 100.222 569.321 137.68 569.321H139.714V571.394Z" fill="#44AB96"/>
<path d="M-4.57764e-05 569.321L-4.57764e-05 426.982H139.714C139.714 505.594 77.162 569.321 -4.57764e-05 569.321Z" fill="#44AB96"/>
<path d="M-5.28549e-05 507.968L-5.28549e-05 426.982H79.2972C79.2972 471.709 43.7946 507.968 -5.28549e-05 507.968Z" fill="#F0F1F1"/>
<path d="M-5.10214e-05 464.144L-5.10214e-05 426.982H36.3875C36.3875 447.506 20.0962 464.144 -5.10214e-05 464.144Z" fill="#060039"/>
<path d="M70.2064 142.303C108.787 142.303 140.064 174.167 140.064 213.473C140.064 252.779 108.787 284.643 70.2064 284.643C31.6253 284.643 0.349243 252.779 0.349243 213.473C0.349243 174.167 31.6253 142.303 70.2064 142.303Z" fill="#44AB96"/>
<path d="M70.5497 170.981C93.7742 170.981 112.601 190.162 112.601 213.823C112.601 237.483 93.7742 256.664 70.5497 256.664C47.3252 256.664 28.4981 237.483 28.4981 213.823C28.4981 190.162 47.3252 170.981 70.5497 170.981Z" fill="#F0F1F1"/>
<path d="M71.2363 191.615C83.6542 191.615 93.721 201.871 93.721 214.522C93.721 227.173 83.6542 237.429 71.2363 237.429C58.8183 237.429 48.7515 227.173 48.7515 214.522C48.7515 201.871 58.8183 191.615 71.2363 191.615Z" fill="#060039"/>
<path d="M140.064 198.26V284.643H55.2738C55.2738 236.935 93.2355 198.26 140.064 198.26Z" fill="#E53855"/>
<path d="M350.316 604.469C350.316 585.154 365.685 569.496 384.643 569.496C403.602 569.496 418.971 585.154 418.971 604.469C418.971 623.784 403.602 639.442 384.643 639.442C365.685 639.442 350.316 623.784 350.316 604.469Z" fill="#E53855"/>
<path d="M279.6 604.469C279.6 585.154 294.969 569.496 313.928 569.496C332.887 569.496 348.256 585.154 348.256 604.469C348.256 623.784 332.887 639.442 313.928 639.442C294.969 639.442 279.6 623.784 279.6 604.469Z" fill="#FFB017"/>
<path d="M350.316 675.114C350.316 655.799 365.685 640.142 384.643 640.142C403.602 640.142 418.971 655.799 418.971 675.114C418.971 694.429 403.602 710.087 384.643 710.087C365.685 710.087 350.316 694.429 350.316 675.114Z" fill="#FFB017"/>
<path d="M279.428 711.661V675.988C279.428 656.287 295.182 640.316 314.614 640.316C334.047 640.316 349.801 656.287 349.801 675.988C349.801 695.69 334.047 711.661 314.614 711.661H279.428Z" fill="#44AB96"/>
<path d="M34.3278 781.606C15.3691 781.606 -1.94299e-05 765.948 -1.94299e-05 746.633C-1.94299e-05 727.318 15.3691 711.661 34.3278 711.661C53.2865 711.661 68.6556 727.318 68.6556 746.633C68.6556 765.948 53.2865 781.606 34.3278 781.606Z" fill="#E53855"/>
<path d="M34.3278 854C15.3691 854 -1.94299e-05 838.342 -1.94299e-05 819.027C-1.94299e-05 799.712 15.3691 784.054 34.3278 784.054C53.2865 784.054 68.6556 799.712 68.6556 819.027C68.6556 838.342 53.2865 854 34.3278 854Z" fill="#FFB017"/>
<path d="M104.013 781.606C85.0545 781.606 69.6854 765.948 69.6854 746.633C69.6854 727.318 85.0545 711.661 104.013 711.661C122.972 711.661 138.341 727.318 138.341 746.633C138.341 765.948 122.972 781.606 104.013 781.606Z" fill="#FFB017"/>
<path d="M139.714 854H104.528C85.0955 854 69.3422 837.951 69.3422 818.153C69.3422 798.355 85.0955 782.306 104.528 782.306C123.961 782.306 139.714 798.355 139.714 818.153V854Z" fill="#44AB96"/>
<path d="M70.3326 406.412L20.7769 355.888L70.3326 305.364L119.888 355.888L70.3326 406.412Z" fill="#FFB017"/>
<path d="M70.3326 381.328L45.3795 355.888L70.3326 330.447L95.2857 355.888L70.3326 381.328Z" fill="#F0F1F1"/>
<path d="M350.11 548.751L300.554 498.227L350.11 447.703L399.666 498.227L350.11 548.751Z" fill="#060039"/>
<path d="M367.755 516.216H332.465V480.238H367.755V516.216Z" fill="#44AB96"/>
<path d="M349.286 711.661C387.867 711.661 419.143 743.525 419.143 782.83C419.143 822.136 387.867 854 349.286 854H279.428L279.428 782.83C279.428 743.525 310.705 711.661 349.286 711.661Z" fill="#F0F1F1"/>
<path d="M321.202 768.883C344.273 768.883 362.976 787.937 362.976 811.441C362.976 834.946 344.273 854 321.202 854H279.428L279.428 811.441C279.428 787.937 298.131 768.883 321.202 768.883Z" fill="#060039"/>
<path d="M349.286 738.662C372.842 738.662 391.937 758.117 391.937 782.115C391.937 806.114 372.842 825.568 349.286 825.568C325.73 825.568 306.634 806.114 306.634 782.115C306.634 758.117 325.73 738.662 349.286 738.662Z" fill="#44AB96"/>
<path d="M349.286 756.678C363.075 756.678 374.253 768.067 374.253 782.115C374.253 796.164 363.075 807.552 349.286 807.552C335.496 807.552 324.318 796.164 324.318 782.115C324.318 768.067 335.496 756.678 349.286 756.678Z" fill="#060039"/>
<path d="M209.571 569.321H279.429V640.491C279.429 679.797 248.152 711.661 209.571 711.661H139.714L139.714 640.491C139.714 601.185 170.99 569.321 209.571 569.321Z" fill="#44AB96"/>
<path d="M209.571 600.078C232.255 600.078 250.643 618.812 250.643 641.921C250.643 665.031 232.255 683.765 209.571 683.765H168.5V641.921C168.5 618.812 186.888 600.078 209.571 600.078Z" fill="#060039"/>
<path d="M251.837 569.321H279.78V597.789C279.78 621.373 261.014 640.491 237.865 640.491H209.922V612.023C209.922 588.44 228.688 569.321 251.837 569.321Z" fill="#F0F1F1"/>
<path d="M34.5795 3.05176e-05H105.135L69.8573 35.9407L34.5795 3.05176e-05Z" fill="#FFB017"/>
<path d="M139.714 0V142.339H0L139.714 0Z" fill="#44AB96"/>
<path d="M0 0L139.714 142.339H0V0Z" fill="#F0F1F1"/>
<path d="M244.849 854H174.293L209.571 818.059L244.849 854Z" fill="#44AB96"/>
<path d="M139.714 854L139.714 711.661H279.429L139.714 854Z" fill="#F0F1F1"/>
<path d="M279.429 854L139.714 711.661H279.429V854Z" fill="#E53855"/>
</svg>
