<svg width="1117" height="1042" viewBox="0 0 1117 1042" fill="none" xmlns="http://www.w3.org/2000/svg">
<path d="M1172 734.284C1172 757.608 1153.26 776.516 1130.13 776.516C1107.01 776.516 1088.27 757.608 1088.27 734.284" stroke="#44AB96" stroke-width="13" stroke-linecap="round" stroke-linejoin="round"/>
<path d="M1172 119.747C1143.04 119.747 1119.58 96.1123 1119.58 66.9578C1119.58 37.8032 1143.04 14.1688 1172 14.1688" stroke="#E53855" stroke-width="13" stroke-linecap="round" stroke-linejoin="round"/>
<path d="M416.206 57.0598C416.206 81.2253 435.766 100.816 459.894 100.816C484.022 100.816 503.581 81.2253 503.581 57.0598V7.61566" stroke="#44AB96" stroke-width="13" stroke-linecap="round" stroke-linejoin="round"/>
<path d="M200.681 7.616L57.6973 7.61566C29.698 7.61566 7 29.7832 7 57.1282" stroke="#44AB96" stroke-width="13" stroke-linecap="round" stroke-linejoin="round"/>
<path d="M821.044 9.07235L1004.34 9.0719C1040.24 9.0719 1069.33 38.0853 1069.33 73.875" stroke="#4484AB" stroke-width="13" stroke-linecap="round" stroke-linejoin="round"/>
<path d="M1172 343.281V220.724C1172 196.724 1152.44 177.269 1128.31 177.269C1104.19 177.269 1084.62 196.724 1084.62 220.724V239.694" stroke="#DA774A" stroke-width="13" stroke-linecap="round" stroke-linejoin="round"/>
<path fill-rule="evenodd" clip-rule="evenodd" d="M435.137 322.166C451.223 322.166 464.262 309.126 464.262 293.041C464.262 276.955 451.223 263.916 435.137 263.916C419.052 263.916 406.012 276.955 406.012 293.041C406.012 309.126 419.052 322.166 435.137 322.166Z" stroke="#44AB96" stroke-width="13" stroke-linecap="round" stroke-linejoin="round"/>
<path fill-rule="evenodd" clip-rule="evenodd" d="M140.975 239.888C166.309 239.888 186.847 219.35 186.847 194.016C186.847 168.681 166.309 148.144 140.975 148.144C115.641 148.144 95.1031 168.681 95.1031 194.016C95.1031 219.35 115.641 239.888 140.975 239.888Z" stroke="#44AB96" stroke-width="13" stroke-linecap="round" stroke-linejoin="round"/>
<path d="M141.339 293.769C197.838 293.769 243.641 248.619 243.641 192.923C243.641 137.228 197.838 92.0781 141.339 92.0781C84.84 92.0781 39.0376 137.228 39.0376 192.923" stroke="#FFB017" stroke-width="13" stroke-linecap="round" stroke-linejoin="round"/>
<path d="M961.725 898.446C946.182 956.56 979.805 1016.08 1036.82 1031.39C1093.84 1046.69 1152.66 1011.98 1168.21 953.869C1183.75 895.754 1150.13 836.239 1093.11 820.931" stroke="#44AB96" stroke-width="13" stroke-linecap="round" stroke-linejoin="round"/>
<path d="M246.189 308.331C223.066 308.331 204.322 327.075 204.322 350.198C204.322 373.321 223.066 392.066 246.189 392.066C269.312 392.066 288.056 373.321 288.056 350.198V308.331" stroke="#44AB96" stroke-width="13" stroke-linecap="round" stroke-linejoin="round"/>
<path d="M258.931 63.3172C258.931 94.0801 283.707 119.019 314.269 119.019C344.831 119.019 369.606 94.0801 369.606 63.3172C369.606 32.5541 344.831 7.61566 314.269 7.61566H258.931" stroke="#E53855" stroke-width="13" stroke-linecap="round" stroke-linejoin="round"/>
<path d="M1071.51 640.356C1071.51 664.886 1091.08 684.772 1115.21 684.772C1139.34 684.772 1158.89 664.886 1158.89 640.356C1158.89 615.827 1139.34 595.941 1115.21 595.941H968.853" stroke="#44AB96" stroke-width="13" stroke-linecap="round" stroke-linejoin="round"/>
<path d="M710.369 108.673C684.632 108.673 663.769 129.244 663.769 154.621C663.769 179.997 684.632 200.569 710.369 200.569C736.105 200.569 756.969 179.997 756.969 154.621V6.88751" stroke="#4484AB" stroke-width="13" stroke-linecap="round" stroke-linejoin="round"/>
<path d="M800.292 416.514C823.415 416.514 842.159 435.164 842.159 458.171C842.159 481.178 823.415 499.828 800.292 499.828C777.169 499.828 758.425 481.178 758.425 458.171V302.506" stroke="#DA774A" stroke-width="13" stroke-linecap="round" stroke-linejoin="round"/>
<path d="M52.5078 420.978C29.3852 420.978 10.6406 439.444 10.6406 462.223C10.6406 485.003 29.3852 503.469 52.5078 503.469C75.6304 503.469 94.375 485.003 94.375 462.223V293.769" stroke="#DA774A" stroke-width="13" stroke-linecap="round" stroke-linejoin="round"/>
<path d="M508.462 293.769C508.462 252.349 475.422 218.772 434.666 218.772C393.909 218.772 360.869 252.349 360.869 293.769C360.869 335.188 393.909 368.766 434.666 368.766H628.091" stroke="#FFB017" stroke-width="13" stroke-linecap="round" stroke-linejoin="round"/>
<path d="M1098.2 536.234C1138.96 536.234 1172 502.657 1172 461.238C1172 419.818 1138.96 386.241 1098.2 386.241H904.778" stroke="#44AB96" stroke-width="13" stroke-linecap="round" stroke-linejoin="round"/>
<path fill-rule="evenodd" clip-rule="evenodd" d="M813.034 134.673C813.034 95.8675 844.154 64.4094 882.542 64.4094H953.955C992.346 64.4094 1023.46 95.8675 1023.46 134.673V134.673C1023.46 173.479 992.346 204.937 953.955 204.937H882.542C844.154 204.937 813.034 173.479 813.034 134.673V134.673Z" stroke="#DA774A" stroke-width="13" stroke-linecap="round" stroke-linejoin="round"/>
<path fill-rule="evenodd" clip-rule="evenodd" d="M201.045 641.084C177.119 641.084 157.722 621.72 157.722 597.834V474.635C157.722 450.748 177.119 431.384 201.045 431.384V431.384C224.972 431.384 244.369 450.748 244.369 474.635V597.834C244.369 621.72 224.972 641.084 201.045 641.084V641.084Z" stroke="#FFB017" stroke-width="13" stroke-linecap="round" stroke-linejoin="round"/>
<path d="M609.887 586.111V521.065C609.887 502.5 625.046 487.45 643.745 487.45V487.45C662.444 487.45 677.603 502.5 677.603 521.065V651.157C677.603 669.722 662.444 684.772 643.745 684.772V684.772V684.772C625.046 684.772 609.887 669.722 609.887 651.157V635.441" stroke="#E53855" stroke-width="13" stroke-linecap="round" stroke-linejoin="round"/>
<path d="M672.506 238.381V244.052C672.506 276.335 646.264 302.506 613.892 302.506V302.506C581.521 302.506 555.278 276.335 555.278 244.052V66.0703C555.278 33.7867 581.521 7.61566 613.892 7.61566V7.61566C646.264 7.61566 672.506 33.7867 672.506 66.0703V67.8152" stroke="#FFB017" stroke-width="13" stroke-linecap="round" stroke-linejoin="round"/>
<path d="M553.822 487.45V656.11C553.822 706.523 595.06 747.391 645.93 747.391C696.8 747.391 738.038 706.523 738.038 656.11V616.262" stroke="#44AB96" stroke-width="13" stroke-linecap="round" stroke-linejoin="round"/>
<path d="M433.681 517.303H397.867C373.814 517.303 354.316 497.743 354.316 473.616C354.316 449.488 373.814 429.928 397.867 429.928H469.495C493.548 429.928 513.047 449.488 513.047 473.616V477.497C513.047 499.481 495.28 517.303 473.364 517.303" stroke="#4484AB" stroke-width="13" stroke-linecap="round" stroke-linejoin="round"/>
<path d="M800.292 350.563H841.199C868.671 350.563 890.944 329.536 890.944 303.598C890.944 277.661 868.671 256.634 841.199 256.634H759.385C731.912 256.634 709.641 277.661 709.641 303.598" stroke="#44AB96" stroke-width="13" stroke-linecap="round" stroke-linejoin="round"/>
<path d="M498.484 154.697H400.42C338.363 154.697 288.056 205.226 288.056 267.556" stroke="#44AB96" stroke-width="13" stroke-linecap="round" stroke-linejoin="round"/>
<path d="M1062.42 885.618C1085.54 885.618 1104.28 904.229 1104.28 927.179C1104.28 950.13 1085.54 968.741 1062.42 968.741C1039.29 968.741 1020.55 950.13 1020.55 927.179V656.375" stroke="#E53855" stroke-width="13" stroke-linecap="round" stroke-linejoin="round"/>
<path d="M748.959 912.675C748.959 870.05 783.069 835.494 825.146 835.494H959.387" stroke="#44AB96" stroke-width="13" stroke-linecap="round" stroke-linejoin="round"/>
<path d="M550.909 429.928H622.537C670.643 429.928 709.641 390.809 709.641 342.553" stroke="#4484AB" stroke-width="13" stroke-linecap="round" stroke-linejoin="round"/>
<path d="M968.853 657.831V696.972C968.853 736.479 936.814 768.506 897.287 768.506H841.431" stroke="#4484AB" stroke-width="13" stroke-linecap="round" stroke-linejoin="round"/>
<path d="M1104.28 462.694H1043.12C998.883 462.694 963.028 498.879 963.028 543.516" stroke="#DA774A" stroke-width="13" stroke-linecap="round" stroke-linejoin="round"/>
<path d="M39.4017 244.256C39.4017 251.037 39.4017 336.399 39.4017 378.231" stroke="#44AB96" stroke-width="13" stroke-linecap="round" stroke-linejoin="round"/>
<path d="M799.564 552.253C799.564 557.854 799.564 628.37 799.564 662.928" stroke="#44AB96" stroke-width="13" stroke-linecap="round" stroke-linejoin="round"/>
<path d="M911.278 434.297C911.278 430.707 908.368 427.797 904.778 427.797C901.188 427.797 898.278 430.707 898.278 434.297H911.278ZM821.465 698.736C817.875 698.736 814.965 701.646 814.965 705.236C814.965 708.826 817.875 711.736 821.465 711.736V698.736ZM898.278 434.297V537.931H911.278V434.297H898.278ZM898.278 537.931C898.278 550.598 887.917 560.946 875.023 560.946V573.946C894.996 573.946 911.278 557.878 911.278 537.931H898.278ZM875.023 560.946C855.048 560.946 838.769 577.028 838.769 596.973H851.769C851.769 584.302 862.133 573.946 875.023 573.946V560.946ZM838.769 596.973V603.097H851.769V596.973H838.769ZM838.769 603.097C838.769 623.04 855.047 639.123 875.023 639.123V626.123C862.133 626.123 851.769 615.766 851.769 603.097H838.769ZM875.023 639.123C887.914 639.123 898.278 649.479 898.278 662.149H911.278C911.278 642.205 894.999 626.123 875.023 626.123V639.123ZM898.278 662.149V668.93H911.278V662.149H898.278ZM898.278 668.93C898.278 685.344 884.855 698.736 868.191 698.736V711.736C891.94 711.736 911.278 692.618 911.278 668.93H898.278ZM868.191 698.736H849.236V711.736H868.191V698.736ZM849.236 698.736H821.465V711.736H849.236V698.736Z" fill="#FFB017"/>
<path d="M1085.35 290.799V305.567C1085.35 326.396 1068.41 343.281 1047.53 343.281V343.281C1026.64 343.281 1009.7 326.396 1009.7 305.567V293.334C1009.7 272.663 992.896 255.906 972.172 255.906V255.906C951.439 255.906 934.631 272.663 934.631 293.334V308.389" stroke="#E53855" stroke-width="13" stroke-linecap="round" stroke-linejoin="round"/>
<path fill-rule="evenodd" clip-rule="evenodd" d="M799.928 943.232C799.928 913.893 823.726 890.103 853.081 890.103V890.103C882.434 890.103 906.234 913.893 906.234 943.232V981.871C906.234 1011.21 882.434 1035 853.081 1035V1035C823.726 1035 799.928 1011.21 799.928 981.871V943.232Z" stroke="#4484AB" stroke-width="13" stroke-linecap="round" stroke-linejoin="round"/>
</svg>
